{
   "accessors" : [
      {
         "bufferView" : 3,
         "byteOffset" : 20448384,
         "componentType" : 5126,
         "count" : 480,
         "max" : [ 0.8392157, 0.8392157, 0.8392157, 0.2509804 ],
         "min" : [ 0.8392157, 0.8392157, 0.8392157, 0.2509804 ],
         "name" : "accessor_color_0fKNrdZF8yD_0_0_-1360060",
         "type" : "VEC4"
      },
      {
         "bufferView" : 3,
         "byteOffset" : 20456064,
         "componentType" : 5126,
         "count" : 9016,
         "max" : [ 1, 1, 1, 1 ],
         "min" : [ 0.1019608, 0.1019608, 0.1019608, 1 ],
         "name" : "accessor_color_0fKNrdZF8yD_1_0_-1360068",
         "type" : "VEC4"
      },
      {
         "bufferView" : 3,
         "byteOffset" : 20442112,
         "componentType" : 5126,
         "count" : 196,
         "max" : [ 0.9176471, 0.7137255, 0.1333333, 1 ],
         "min" : [ 0.6588235, 0.6627451, 0.06666667, 1 ],
         "name" : "accessor_color_DoubleTaperedMarker_0d3889f3-3ede-470c-8af4-de4813306126_0_0",
         "type" : "VEC4"
      },
      {
         "bufferView" : 3,
         "byteOffset" : 18997312,
         "componentType" : 5126,
         "count" : 35442,
         "max" : [ 0.9882353, 0.9921569, 0.9921569, 1 ],
         "min" : [ 0, 0.04313726, 0.06666667, 0 ],
         "name" : "accessor_color_Marker_429ed64a-4e97-4466-84d3-145a861ef684_0_0",
         "type" : "VEC4"
      },
      {
         "bufferView" : 3,
         "byteOffset" : 20431168,
         "componentType" : 5126,
         "count" : 342,
         "max" : [ 0.5333334, 0.5372549, 0.5372549, 1 ],
         "min" : [ 0.2, 0.2, 0.2, 1 ],
         "name" : "accessor_color_SoftHighlighter_accb32f5-4509-454f-93f8-1df3fd31df1b_0_0",
         "type" : "VEC4"
      },
      {
         "bufferView" : 3,
         "byteOffset" : 20131456,
         "componentType" : 5126,
         "count" : 9366,
         "max" : [ 0.9960784, 0.9921569, 0.9921569, 1 ],
         "min" : [ 0.5019608, 0.4470588, 0.1882353, 1 ],
         "name" : "accessor_color_TaperedMarker_d90c6ad8-af0f-4b54-b422-e0f92abe1b3c_0_0",
         "type" : "VEC4"
      },
      {
         "bufferView" : 3,
         "byteOffset" : 0,
         "componentType" : 5126,
         "count" : 65343,
         "max" : [ 1, 0.8823529, 0.9686275, 1 ],
         "min" : [ 0.454902, 0.3411765, 0.372549, 1 ],
         "name" : "accessor_color_Wire_4391385a-cf83-4396-9e33-31e4e4930b27_0_0",
         "type" : "VEC4"
      },
      {
         "bufferView" : 3,
         "byteOffset" : 2090976,
         "componentType" : 5126,
         "count" : 64457,
         "max" : [ 0.9960784, 0.8823529, 0.8549020000000001, 1 ],
         "min" : [ 0.2352941, 0.2039216, 0.1372549, 1 ],
         "name" : "accessor_color_Wire_4391385a-cf83-4396-9e33-31e4e4930b27_0_1",
         "type" : "VEC4"
      },
      {
         "bufferView" : 3,
         "byteOffset" : 4153600,
         "componentType" : 5126,
         "count" : 65503,
         "max" : [ 1, 0.9803922, 0.8980392, 1 ],
         "min" : [ 0.5372549, 0.345098, 0.1882353, 1 ],
         "name" : "accessor_color_Wire_4391385a-cf83-4396-9e33-31e4e4930b27_0_2",
         "type" : "VEC4"
      },
      {
         "bufferView" : 3,
         "byteOffset" : 6249696,
         "componentType" : 5126,
         "count" : 65367,
         "max" : [ 0.9921569, 0.9372549, 0.8392157, 1 ],
         "min" : [ 0.4313726, 0.282353, 0.09803922, 1 ],
         "name" : "accessor_color_Wire_4391385a-cf83-4396-9e33-31e4e4930b27_0_3",
         "type" : "VEC4"
      },
      {
         "bufferView" : 3,
         "byteOffset" : 8341440,
         "componentType" : 5126,
         "count" : 65392,
         "max" : [ 0.9803922, 0.9372549, 0.9176471, 1 ],
         "min" : [ 0.2901961, 0.254902, 0.03137255, 1 ],
         "name" : "accessor_color_Wire_4391385a-cf83-4396-9e33-31e4e4930b27_0_4",
         "type" : "VEC4"
      },
      {
         "bufferView" : 3,
         "byteOffset" : 10433984,
         "componentType" : 5126,
         "count" : 65465,
         "max" : [ 0.9803922, 0.8588235, 0.6784314, 1 ],
         "min" : [ 0.2745098, 0.1529412, 0.01176471, 1 ],
         "name" : "accessor_color_Wire_4391385a-cf83-4396-9e33-31e4e4930b27_0_5",
         "type" : "VEC4"
      },
      {
         "bufferView" : 3,
         "byteOffset" : 12528864,
         "componentType" : 5126,
         "count" : 65501,
         "max" : [ 1, 0.9960784, 0.9960784, 1 ],
         "min" : [ 0.2039216, 0.1882353, 0.07843137999999999, 1 ],
         "name" : "accessor_color_Wire_4391385a-cf83-4396-9e33-31e4e4930b27_0_6",
         "type" : "VEC4"
      },
      {
         "bufferView" : 3,
         "byteOffset" : 14624896,
         "componentType" : 5126,
         "count" : 65469,
         "max" : [ 1, 0.9960784, 0.9960784, 1 ],
         "min" : [ 0.2313726, 0.2039216, 0.1215686, 1 ],
         "name" : "accessor_color_Wire_4391385a-cf83-4396-9e33-31e4e4930b27_0_7",
         "type" : "VEC4"
      },
      {
         "bufferView" : 3,
         "byteOffset" : 16719904,
         "componentType" : 5126,
         "count" : 65319,
         "max" : [ 1, 1, 1, 1 ],
         "min" : [ 0.1411765, 0.1294118, 0.08235294, 1 ],
         "name" : "accessor_color_Wire_4391385a-cf83-4396-9e33-31e4e4930b27_0_8",
         "type" : "VEC4"
      },
      {
         "bufferView" : 3,
         "byteOffset" : 18810112,
         "componentType" : 5126,
         "count" : 5850,
         "max" : [ 0.3882353, 0.3254902, 0.1490196, 1 ],
         "min" : [ 0.2352941, 0.2039216, 0.1372549, 1 ],
         "name" : "accessor_color_Wire_4391385a-cf83-4396-9e33-31e4e4930b27_0_9",
         "type" : "VEC4"
      },
      {
         "bufferView" : 0,
         "byteOffset" : 5651904,
         "componentType" : 5123,
         "count" : 708,
         "max" : [ 479 ],
         "min" : [ 0 ],
         "name" : "accessor_indices_0_0fKNrdZF8yD_0_0_-1360060",
         "type" : "SCALAR"
      },
      {
         "bufferView" : 0,
         "byteOffset" : 5653320,
         "componentType" : 5123,
         "count" : 13836,
         "max" : [ 9015 ],
         "min" : [ 0 ],
         "name" : "accessor_indices_0_0fKNrdZF8yD_1_0_-1360068",
         "type" : "SCALAR"
      },
      {
         "bufferView" : 0,
         "byteOffset" : 5650812,
         "componentType" : 5123,
         "count" : 546,
         "max" : [ 195 ],
         "min" : [ 0 ],
         "name" : "accessor_indices_0_DoubleTaperedMarker_0d3889f3-3ede-470c-8af4-de4813306126_0_0",
         "type" : "SCALAR"
      },
      {
         "bufferView" : 0,
         "byteOffset" : 5560512,
         "componentType" : 5123,
         "count" : 35442,
         "max" : [ 35441 ],
         "min" : [ 0 ],
         "name" : "accessor_indices_0_Marker_429ed64a-4e97-4466-84d3-145a861ef684_0_0",
         "type" : "SCALAR"
      },
      {
         "bufferView" : 0,
         "byteOffset" : 5650128,
         "componentType" : 5123,
         "count" : 342,
         "max" : [ 341 ],
         "min" : [ 0 ],
         "name" : "accessor_indices_0_SoftHighlighter_accb32f5-4509-454f-93f8-1df3fd31df1b_0_0",
         "type" : "SCALAR"
      },
      {
         "bufferView" : 0,
         "byteOffset" : 5631396,
         "componentType" : 5123,
         "count" : 9366,
         "max" : [ 9365 ],
         "min" : [ 0 ],
         "name" : "accessor_indices_0_TaperedMarker_d90c6ad8-af0f-4b54-b422-e0f92abe1b3c_0_0",
         "type" : "SCALAR"
      },
      {
         "bufferView" : 0,
         "byteOffset" : 0,
         "componentType" : 5123,
         "count" : 306768,
         "max" : [ 65342 ],
         "min" : [ 0 ],
         "name" : "accessor_indices_0_Wire_4391385a-cf83-4396-9e33-31e4e4930b27_0_0",
         "type" : "SCALAR"
      },
      {
         "bufferView" : 0,
         "byteOffset" : 613536,
         "componentType" : 5123,
         "count" : 296496,
         "max" : [ 64456 ],
         "min" : [ 0 ],
         "name" : "accessor_indices_0_Wire_4391385a-cf83-4396-9e33-31e4e4930b27_0_1",
         "type" : "SCALAR"
      },
      {
         "bufferView" : 0,
         "byteOffset" : 1206528,
         "componentType" : 5123,
         "count" : 310608,
         "max" : [ 65502 ],
         "min" : [ 0 ],
         "name" : "accessor_indices_0_Wire_4391385a-cf83-4396-9e33-31e4e4930b27_0_2",
         "type" : "SCALAR"
      },
      {
         "bufferView" : 0,
         "byteOffset" : 1827744,
         "componentType" : 5123,
         "count" : 306384,
         "max" : [ 65366 ],
         "min" : [ 0 ],
         "name" : "accessor_indices_0_Wire_4391385a-cf83-4396-9e33-31e4e4930b27_0_3",
         "type" : "SCALAR"
      },
      {
         "bufferView" : 0,
         "byteOffset" : 2440512,
         "componentType" : 5123,
         "count" : 303360,
         "max" : [ 65391 ],
         "min" : [ 0 ],
         "name" : "accessor_indices_0_Wire_4391385a-cf83-4396-9e33-31e4e4930b27_0_4",
         "type" : "SCALAR"
      },
      {
         "bufferView" : 0,
         "byteOffset" : 3047232,
         "componentType" : 5123,
         "count" : 300336,
         "max" : [ 65464 ],
         "min" : [ 0 ],
         "name" : "accessor_indices_0_Wire_4391385a-cf83-4396-9e33-31e4e4930b27_0_5",
         "type" : "SCALAR"
      },
      {
         "bufferView" : 0,
         "byteOffset" : 3647904,
         "componentType" : 5123,
         "count" : 305904,
         "max" : [ 65500 ],
         "min" : [ 0 ],
         "name" : "accessor_indices_0_Wire_4391385a-cf83-4396-9e33-31e4e4930b27_0_6",
         "type" : "SCALAR"
      },
      {
         "bufferView" : 0,
         "byteOffset" : 4259712,
         "componentType" : 5123,
         "count" : 312048,
         "max" : [ 65468 ],
         "min" : [ 0 ],
         "name" : "accessor_indices_0_Wire_4391385a-cf83-4396-9e33-31e4e4930b27_0_7",
         "type" : "SCALAR"
      },
      {
         "bufferView" : 0,
         "byteOffset" : 4883808,
         "componentType" : 5123,
         "count" : 309456,
         "max" : [ 65318 ],
         "min" : [ 0 ],
         "name" : "accessor_indices_0_Wire_4391385a-cf83-4396-9e33-31e4e4930b27_0_8",
         "type" : "SCALAR"
      },
      {
         "bufferView" : 0,
         "byteOffset" : 5502720,
         "componentType" : 5123,
         "count" : 28896,
         "max" : [ 5849 ],
         "min" : [ 0 ],
         "name" : "accessor_indices_0_Wire_4391385a-cf83-4396-9e33-31e4e4930b27_0_9",
         "type" : "SCALAR"
      },
      {
         "bufferView" : 2,
         "byteOffset" : 15344400,
         "componentType" : 5126,
         "count" : 480,
         "max" : [ 0.9854015, 0.9992018, 0.9839388999999999 ],
         "min" : [ -0.9854015, -0.9992018, -0.9839388999999999 ],
         "name" : "accessor_normal_0fKNrdZF8yD_0_0_-1360060",
         "type" : "VEC3"
      },
      {
         "bufferView" : 2,
         "byteOffset" : 15458352,
         "componentType" : 5126,
         "count" : 9016,
         "max" : [ 0.9999958, 0.9999964, 0.999819 ],
         "min" : [ -0.9991027, -0.9999964, -0.9999441999999999 ],
         "name" : "accessor_normal_0fKNrdZF8yD_1_0_-1360068",
         "type" : "VEC3"
      },
      {
         "bufferView" : 2,
         "byteOffset" : 15333936,
         "componentType" : 5126,
         "count" : 196,
         "max" : [ 0.9826661, 0.9982098, 0.9330822 ],
         "min" : [ -0.7447336, -0.9710341, -0.9962085000000001 ],
         "name" : "accessor_normal_DoubleTaperedMarker_0d3889f3-3ede-470c-8af4-de4813306126_0_0",
         "type" : "VEC3"
      },
      {
         "bufferView" : 2,
         "byteOffset" : 14673288,
         "componentType" : 5126,
         "count" : 35442,
         "max" : [ 0.9952168, 0.9999082, 0.9900783 ],
         "min" : [ -0.9975232000000001, -0.9999389, -0.9998759 ],
         "name" : "accessor_normal_Marker_429ed64a-4e97-4466-84d3-145a861ef684_0_0",
         "type" : "VEC3"
      },
      {
         "bufferView" : 2,
         "byteOffset" : 15327480,
         "componentType" : 5126,
         "count" : 342,
         "max" : [ 0.9985371, 0.03431973, 0.9981195 ],
         "min" : [ -0.9967555, -0.319406, -0.9547994 ],
         "name" : "accessor_normal_SoftHighlighter_accb32f5-4509-454f-93f8-1df3fd31df1b_0_0",
         "type" : "VEC3"
      },
      {
         "bufferView" : 2,
         "byteOffset" : 15210984,
         "componentType" : 5126,
         "count" : 9366,
         "max" : [ 0.9983102, 0.9999065, 0.6101112 ],
         "min" : [ -0.9865947, -0.9999051, -0.8588499000000001 ],
         "name" : "accessor_normal_TaperedMarker_d90c6ad8-af0f-4b54-b422-e0f92abe1b3c_0_0",
         "type" : "VEC3"
      },
      {
         "bufferView" : 2,
         "byteOffset" : 784116,
         "componentType" : 5126,
         "count" : 65343,
         "max" : [ 0.9999939, 0.9998019, 0.9999861 ],
         "min" : [ -0.999994, -0.9998633, -0.9999861 ],
         "name" : "accessor_normal_Wire_4391385a-cf83-4396-9e33-31e4e4930b27_0_0",
         "type" : "VEC3"
      },
      {
         "bufferView" : 2,
         "byteOffset" : 2341716,
         "componentType" : 5126,
         "count" : 64457,
         "max" : [ 0.9999045, 0.9999864000000001, 0.9998819 ],
         "min" : [ -0.9999044, -0.9999864000000001, -0.9998819 ],
         "name" : "accessor_normal_Wire_4391385a-cf83-4396-9e33-31e4e4930b27_0_1",
         "type" : "VEC3"
      },
      {
         "bufferView" : 2,
         "byteOffset" : 3901236,
         "componentType" : 5126,
         "count" : 65503,
         "max" : [ 0.999983, 1, 0.9999839 ],
         "min" : [ -0.999983, -1, -0.9999839 ],
         "name" : "accessor_normal_Wire_4391385a-cf83-4396-9e33-31e4e4930b27_0_2",
         "type" : "VEC3"
      },
      {
         "bufferView" : 2,
         "byteOffset" : 5471676,
         "componentType" : 5126,
         "count" : 65367,
         "max" : [ 0.9999582, 0.9999571, 0.9999735 ],
         "min" : [ -0.9999582, -0.9999571, -0.9999735 ],
         "name" : "accessor_normal_Wire_4391385a-cf83-4396-9e33-31e4e4930b27_0_3",
         "type" : "VEC3"
      },
      {
         "bufferView" : 2,
         "byteOffset" : 7040784,
         "componentType" : 5126,
         "count" : 65392,
         "max" : [ 0.9999616, 0.9999728, 0.9999965 ],
         "min" : [ -0.9999616, -0.9999728, -0.9999965 ],
         "name" : "accessor_normal_Wire_4391385a-cf83-4396-9e33-31e4e4930b27_0_4",
         "type" : "VEC3"
      },
      {
         "bufferView" : 2,
         "byteOffset" : 8611068,
         "componentType" : 5126,
         "count" : 65465,
         "max" : [ 0.9998565, 0.9999547, 0.9999925 ],
         "min" : [ -0.9998203, -0.9999547, -0.9999925 ],
         "name" : "accessor_normal_Wire_4391385a-cf83-4396-9e33-31e4e4930b27_0_5",
         "type" : "VEC3"
      },
      {
         "bufferView" : 2,
         "byteOffset" : 10182660,
         "componentType" : 5126,
         "count" : 65501,
         "max" : [ 0.9999832, 0.9999864000000001, 0.9999484 ],
         "min" : [ -0.9999832, -0.9999864000000001, -0.9999483 ],
         "name" : "accessor_normal_Wire_4391385a-cf83-4396-9e33-31e4e4930b27_0_6",
         "type" : "VEC3"
      },
      {
         "bufferView" : 2,
         "byteOffset" : 11754300,
         "componentType" : 5126,
         "count" : 65469,
         "max" : [ 0.9999400000000001, 0.9999702, 0.9999763 ],
         "min" : [ -0.9999400000000001, -0.9999702, -0.9999763 ],
         "name" : "accessor_normal_Wire_4391385a-cf83-4396-9e33-31e4e4930b27_0_7",
         "type" : "VEC3"
      },
      {
         "bufferView" : 2,
         "byteOffset" : 13323756,
         "componentType" : 5126,
         "count" : 65319,
         "max" : [ 0.9999792, 0.9998463, 0.9999881 ],
         "min" : [ -0.9999792, -0.9999508, -0.9999881 ],
         "name" : "accessor_normal_Wire_4391385a-cf83-4396-9e33-31e4e4930b27_0_8",
         "type" : "VEC3"
      },
      {
         "bufferView" : 2,
         "byteOffset" : 14177784,
         "componentType" : 5126,
         "count" : 5850,
         "max" : [ 0.9998907, 0.9996037, 0.9970526 ],
         "min" : [ -0.9998907, -0.9996037, -0.9970526 ],
         "name" : "accessor_normal_Wire_4391385a-cf83-4396-9e33-31e4e4930b27_0_9",
         "type" : "VEC3"
      },
      {
         "bufferView" : 2,
         "byteOffset" : 15338640,
         "componentType" : 5126,
         "count" : 480,
         "max" : [ -0.5428714, 1.141993, 0.1415485 ],
         "min" : [ -0.6236868, 0.977011, 0.05499689 ],
         "name" : "accessor_position_0fKNrdZF8yD_0_0_-1360060",
         "type" : "VEC3"
      },
      {
         "bufferView" : 2,
         "byteOffset" : 15350160,
         "componentType" : 5126,
         "count" : 9016,
         "max" : [ -0.3494157, 1.116064, 0.290341 ],
         "min" : [ -0.9714017, 0.8176122, -0.113788 ],
         "name" : "accessor_position_0fKNrdZF8yD_1_0_-1360068",
         "type" : "VEC3"
      },
      {
         "bufferView" : 2,
         "byteOffset" : 15331584,
         "componentType" : 5126,
         "count" : 196,
         "max" : [ -0.641979, 0.9405014, 0.5439484999999999 ],
         "min" : [ -0.7164227, 0.829301, 0.4717171 ],
         "name" : "accessor_position_DoubleTaperedMarker_0d3889f3-3ede-470c-8af4-de4813306126_0_0",
         "type" : "VEC3"
      },
      {
         "bufferView" : 2,
         "byteOffset" : 14247984,
         "componentType" : 5126,
         "count" : 35442,
         "max" : [ 5.559477, 12.4379, 8.173581 ],
         "min" : [ -9.926152999999999, -4.440804, -10.42134 ],
         "name" : "accessor_position_Marker_429ed64a-4e97-4466-84d3-145a861ef684_0_0",
         "type" : "VEC3"
      },
      {
         "bufferView" : 2,
         "byteOffset" : 15323376,
         "componentType" : 5126,
         "count" : 342,
         "max" : [ 2.033361, 2.936077, 4.982557 ],
         "min" : [ -8.162701999999999, -1.888587, -6.460544 ],
         "name" : "accessor_position_SoftHighlighter_accb32f5-4509-454f-93f8-1df3fd31df1b_0_0",
         "type" : "VEC3"
      },
      {
         "bufferView" : 2,
         "byteOffset" : 15098592,
         "componentType" : 5126,
         "count" : 9366,
         "max" : [ 1.239481, 1.137314, 2.671544 ],
         "min" : [ -4.740835, 0.5252261, -2.258539 ],
         "name" : "accessor_position_TaperedMarker_d90c6ad8-af0f-4b54-b422-e0f92abe1b3c_0_0",
         "type" : "VEC3"
      },
      {
         "bufferView" : 2,
         "byteOffset" : 0,
         "componentType" : 5126,
         "count" : 65343,
         "max" : [ -1.358887, 1.263031, 1.438834 ],
         "min" : [ -4.113098, 0.02831997, -3.325153 ],
         "name" : "accessor_position_Wire_4391385a-cf83-4396-9e33-31e4e4930b27_0_0",
         "type" : "VEC3"
      },
      {
         "bufferView" : 2,
         "byteOffset" : 1568232,
         "componentType" : 5126,
         "count" : 64457,
         "max" : [ 0.6649954, 1.850562, 1.295537 ],
         "min" : [ -3.437422, 0.2228589, -2.782813 ],
         "name" : "accessor_position_Wire_4391385a-cf83-4396-9e33-31e4e4930b27_0_1",
         "type" : "VEC3"
      },
      {
         "bufferView" : 2,
         "byteOffset" : 3115200,
         "componentType" : 5126,
         "count" : 65503,
         "max" : [ 1.084875, 2.025794, 0.5555822 ],
         "min" : [ -3.177221, -0.3525802, -2.927061 ],
         "name" : "accessor_position_Wire_4391385a-cf83-4396-9e33-31e4e4930b27_0_2",
         "type" : "VEC3"
      },
      {
         "bufferView" : 2,
         "byteOffset" : 4687272,
         "componentType" : 5126,
         "count" : 65367,
         "max" : [ 0.4217761, 1.496738, -0.9879715999999999 ],
         "min" : [ -1.205382, 0.2495573, -2.855808 ],
         "name" : "accessor_position_Wire_4391385a-cf83-4396-9e33-31e4e4930b27_0_3",
         "type" : "VEC3"
      },
      {
         "bufferView" : 2,
         "byteOffset" : 6256080,
         "componentType" : 5126,
         "count" : 65392,
         "max" : [ 0.8089623, 2.225394, 0.8970835 ],
         "min" : [ -1.573038, 0.3650316, -3.242463 ],
         "name" : "accessor_position_Wire_4391385a-cf83-4396-9e33-31e4e4930b27_0_4",
         "type" : "VEC3"
      },
      {
         "bufferView" : 2,
         "byteOffset" : 7825488,
         "componentType" : 5126,
         "count" : 65465,
         "max" : [ 1.281333, 1.162328, 2.051503 ],
         "min" : [ -2.177551, 0.1251764, -0.9591217 ],
         "name" : "accessor_position_Wire_4391385a-cf83-4396-9e33-31e4e4930b27_0_5",
         "type" : "VEC3"
      },
      {
         "bufferView" : 2,
         "byteOffset" : 9396648,
         "componentType" : 5126,
         "count" : 65501,
         "max" : [ 1.094338, 2.524187, 1.73904 ],
         "min" : [ -4.633027, 0.3226421, -3.467076 ],
         "name" : "accessor_position_Wire_4391385a-cf83-4396-9e33-31e4e4930b27_0_6",
         "type" : "VEC3"
      },
      {
         "bufferView" : 2,
         "byteOffset" : 10968672,
         "componentType" : 5126,
         "count" : 65469,
         "max" : [ 0.3938895, 3.248647, 1.372636 ],
         "min" : [ -4.622556, 0.4877114, -3.462705 ],
         "name" : "accessor_position_Wire_4391385a-cf83-4396-9e33-31e4e4930b27_0_7",
         "type" : "VEC3"
      },
      {
         "bufferView" : 2,
         "byteOffset" : 12539928,
         "componentType" : 5126,
         "count" : 65319,
         "max" : [ -0.2082811, 1.324657, 2.377952 ],
         "min" : [ -5.428358, -0.5015199, -1.460541 ],
         "name" : "accessor_position_Wire_4391385a-cf83-4396-9e33-31e4e4930b27_0_8",
         "type" : "VEC3"
      },
      {
         "bufferView" : 2,
         "byteOffset" : 14107584,
         "componentType" : 5126,
         "count" : 5850,
         "max" : [ 1.146276, 1.022614, 1.607091 ],
         "min" : [ -1.325166, 0.2048423, -0.6136898 ],
         "name" : "accessor_position_Wire_4391385a-cf83-4396-9e33-31e4e4930b27_0_9",
         "type" : "VEC3"
      },
      {
         "bufferView" : 3,
         "byteOffset" : 20445248,
         "componentType" : 5126,
         "count" : 196,
         "max" : [ 0.9994587, 0.9986336, 0.9971934, 1 ],
         "min" : [ -0.918898, -0.8559687, -0.8867752, 1 ],
         "name" : "accessor_tangent_DoubleTaperedMarker_0d3889f3-3ede-470c-8af4-de4813306126_0_0",
         "type" : "VEC4"
      },
      {
         "bufferView" : 3,
         "byteOffset" : 19564384,
         "componentType" : 5126,
         "count" : 35442,
         "max" : [ 0.9999908, 0.9998884, 0.9999089, 1 ],
         "min" : [ -0.9999864000000001, -0.9999978, -0.9999111000000001, 1 ],
         "name" : "accessor_tangent_Marker_429ed64a-4e97-4466-84d3-145a861ef684_0_0",
         "type" : "VEC4"
      },
      {
         "bufferView" : 3,
         "byteOffset" : 20436640,
         "componentType" : 5126,
         "count" : 342,
         "max" : [ 0.998204, 0.2933661, 0.9969608, 1 ],
         "min" : [ -0.9998359999999999, -0.3237783, -0.9992272, 1 ],
         "name" : "accessor_tangent_SoftHighlighter_accb32f5-4509-454f-93f8-1df3fd31df1b_0_0",
         "type" : "VEC4"
      },
      {
         "bufferView" : 3,
         "byteOffset" : 20281312,
         "componentType" : 5126,
         "count" : 9366,
         "max" : [ 0.9999933, 0.9999031, 0.9999084, 1 ],
         "min" : [ -0.9999517999999999, -0.9582009, -0.9998279, 1 ],
         "name" : "accessor_tangent_TaperedMarker_d90c6ad8-af0f-4b54-b422-e0f92abe1b3c_0_0",
         "type" : "VEC4"
      },
      {
         "bufferView" : 3,
         "byteOffset" : 1045488,
         "componentType" : 5126,
         "count" : 65343,
         "max" : [ 0.9999009, 0.9998051, 0.9999603, 1 ],
         "min" : [ -0.9999009, -0.9998642, -0.9999602, 1 ],
         "name" : "accessor_tangent_Wire_4391385a-cf83-4396-9e33-31e4e4930b27_0_0",
         "type" : "VEC4"
      },
      {
         "bufferView" : 3,
         "byteOffset" : 3122288,
         "componentType" : 5126,
         "count" : 64457,
         "max" : [ 0.9998011999999999, 0.9999497000000001, 0.9999367, 1 ],
         "min" : [ -0.9998011999999999, -0.9999496, -0.9999367, 1 ],
         "name" : "accessor_tangent_Wire_4391385a-cf83-4396-9e33-31e4e4930b27_0_1",
         "type" : "VEC4"
      },
      {
         "bufferView" : 3,
         "byteOffset" : 5201648,
         "componentType" : 5126,
         "count" : 65503,
         "max" : [ 0.9998934, 0.9997857, 0.999977, 1 ],
         "min" : [ -1, -0.9998338, -0.9998108, 1 ],
         "name" : "accessor_tangent_Wire_4391385a-cf83-4396-9e33-31e4e4930b27_0_2",
         "type" : "VEC4"
      },
      {
         "bufferView" : 3,
         "byteOffset" : 7295568,
         "componentType" : 5126,
         "count" : 65367,
         "max" : [ 0.9999877, 0.9999353, 0.9997563, 1 ],
         "min" : [ -0.9999876, -0.9992299, -0.9995875, 1 ],
         "name" : "accessor_tangent_Wire_4391385a-cf83-4396-9e33-31e4e4930b27_0_3",
         "type" : "VEC4"
      },
      {
         "bufferView" : 3,
         "byteOffset" : 9387712,
         "componentType" : 5126,
         "count" : 65392,
         "max" : [ 0.9998817, 0.9999632000000001, 0.9999177, 1 ],
         "min" : [ -0.9997622, -0.9999670000000001, -0.9999177, 1 ],
         "name" : "accessor_tangent_Wire_4391385a-cf83-4396-9e33-31e4e4930b27_0_4",
         "type" : "VEC4"
      },
      {
         "bufferView" : 3,
         "byteOffset" : 11481424,
         "componentType" : 5126,
         "count" : 65465,
         "max" : [ 0.99998, 0.9999249, 0.9999372, 1 ],
         "min" : [ -0.99998, -0.999925, -0.9999372, 1 ],
         "name" : "accessor_tangent_Wire_4391385a-cf83-4396-9e33-31e4e4930b27_0_5",
         "type" : "VEC4"
      },
      {
         "bufferView" : 3,
         "byteOffset" : 13576880,
         "componentType" : 5126,
         "count" : 65501,
         "max" : [ 0.999846, 0.9999107, 0.9996096, 1 ],
         "min" : [ -0.9998461, -0.9999479999999999, -0.9998070999999999, 1 ],
         "name" : "accessor_tangent_Wire_4391385a-cf83-4396-9e33-31e4e4930b27_0_6",
         "type" : "VEC4"
      },
      {
         "bufferView" : 3,
         "byteOffset" : 15672400,
         "componentType" : 5126,
         "count" : 65469,
         "max" : [ 0.9998863, 0.9999745, 0.9997255, 1 ],
         "min" : [ -0.9998711, -0.9999744, -0.9997731, 1 ],
         "name" : "accessor_tangent_Wire_4391385a-cf83-4396-9e33-31e4e4930b27_0_7",
         "type" : "VEC4"
      },
      {
         "bufferView" : 3,
         "byteOffset" : 17765008,
         "componentType" : 5126,
         "count" : 65319,
         "max" : [ 0.9998549, 0.9999884, 0.9998861999999999, 1 ],
         "min" : [ -0.9998549, -0.9999912, -0.9999943, 1 ],
         "name" : "accessor_tangent_Wire_4391385a-cf83-4396-9e33-31e4e4930b27_0_8",
         "type" : "VEC4"
      },
      {
         "bufferView" : 3,
         "byteOffset" : 18903712,
         "componentType" : 5126,
         "count" : 5850,
         "max" : [ 0.9821512, 0.9939446, 0.9988262999999999, 1 ],
         "min" : [ -0.9775795, -0.9939446, -0.9988264, 1 ],
         "name" : "accessor_tangent_Wire_4391385a-cf83-4396-9e33-31e4e4930b27_0_9",
         "type" : "VEC4"
      },
      {
         "bufferView" : 1,
         "byteOffset" : 5110528,
         "componentType" : 5126,
         "count" : 196,
         "max" : [ 1, 1 ],
         "min" : [ 0, 0 ],
         "name" : "accessor_uv0_DoubleTaperedMarker_0d3889f3-3ede-470c-8af4-de4813306126_0_0",
         "type" : "VEC2"
      },
      {
         "bufferView" : 1,
         "byteOffset" : 4749328,
         "componentType" : 5126,
         "count" : 35442,
         "max" : [ 8.410207, 1 ],
         "min" : [ 0.003019989, 0 ],
         "name" : "accessor_uv0_Marker_429ed64a-4e97-4466-84d3-145a861ef684_0_0",
         "type" : "VEC2"
      },
      {
         "bufferView" : 1,
         "byteOffset" : 5107792,
         "componentType" : 5126,
         "count" : 342,
         "max" : [ 1, 1 ],
         "min" : [ 0, 0 ],
         "name" : "accessor_uv0_SoftHighlighter_accb32f5-4509-454f-93f8-1df3fd31df1b_0_0",
         "type" : "VEC2"
      },
      {
         "bufferView" : 1,
         "byteOffset" : 5032864,
         "componentType" : 5126,
         "count" : 9366,
         "max" : [ 1, 1 ],
         "min" : [ 0, 0 ],
         "name" : "accessor_uv0_TaperedMarker_d90c6ad8-af0f-4b54-b422-e0f92abe1b3c_0_0",
         "type" : "VEC2"
      },
      {
         "bufferView" : 1,
         "byteOffset" : 0,
         "componentType" : 5126,
         "count" : 65343,
         "max" : [ 2.792152, 1 ],
         "min" : [ -0.02689272, 0 ],
         "name" : "accessor_uv0_Wire_4391385a-cf83-4396-9e33-31e4e4930b27_0_0",
         "type" : "VEC2"
      },
      {
         "bufferView" : 1,
         "byteOffset" : 522744,
         "componentType" : 5126,
         "count" : 64457,
         "max" : [ 4.984362, 1 ],
         "min" : [ -0.02949601, 0 ],
         "name" : "accessor_uv0_Wire_4391385a-cf83-4396-9e33-31e4e4930b27_0_1",
         "type" : "VEC2"
      },
      {
         "bufferView" : 1,
         "byteOffset" : 1038400,
         "componentType" : 5126,
         "count" : 65503,
         "max" : [ 7.954487, 1 ],
         "min" : [ -0.02869004, 0 ],
         "name" : "accessor_uv0_Wire_4391385a-cf83-4396-9e33-31e4e4930b27_0_2",
         "type" : "VEC2"
      },
      {
         "bufferView" : 1,
         "byteOffset" : 1562424,
         "componentType" : 5126,
         "count" : 65367,
         "max" : [ 3.48311, 1 ],
         "min" : [ -0.03047678, 0 ],
         "name" : "accessor_uv0_Wire_4391385a-cf83-4396-9e33-31e4e4930b27_0_3",
         "type" : "VEC2"
      },
      {
         "bufferView" : 1,
         "byteOffset" : 2085360,
         "componentType" : 5126,
         "count" : 65392,
         "max" : [ 1.739915, 1 ],
         "min" : [ -0.02908515, 0 ],
         "name" : "accessor_uv0_Wire_4391385a-cf83-4396-9e33-31e4e4930b27_0_4",
         "type" : "VEC2"
      },
      {
         "bufferView" : 1,
         "byteOffset" : 2608496,
         "componentType" : 5126,
         "count" : 65465,
         "max" : [ 2.019439, 1 ],
         "min" : [ -0.02803481, 0 ],
         "name" : "accessor_uv0_Wire_4391385a-cf83-4396-9e33-31e4e4930b27_0_5",
         "type" : "VEC2"
      },
      {
         "bufferView" : 1,
         "byteOffset" : 3132216,
         "componentType" : 5126,
         "count" : 65501,
         "max" : [ 11.39696, 1 ],
         "min" : [ -0.02926497, 0 ],
         "name" : "accessor_uv0_Wire_4391385a-cf83-4396-9e33-31e4e4930b27_0_6",
         "type" : "VEC2"
      },
      {
         "bufferView" : 1,
         "byteOffset" : 3656224,
         "componentType" : 5126,
         "count" : 65469,
         "max" : [ 5.742129, 1 ],
         "min" : [ -0.02945295, 0 ],
         "name" : "accessor_uv0_Wire_4391385a-cf83-4396-9e33-31e4e4930b27_0_7",
         "type" : "VEC2"
      },
      {
         "bufferView" : 1,
         "byteOffset" : 4179976,
         "componentType" : 5126,
         "count" : 65319,
         "max" : [ 3.613479, 1 ],
         "min" : [ -0.02605782, 0 ],
         "name" : "accessor_uv0_Wire_4391385a-cf83-4396-9e33-31e4e4930b27_0_8",
         "type" : "VEC2"
      },
      {
         "bufferView" : 1,
         "byteOffset" : 4702528,
         "componentType" : 5126,
         "count" : 5850,
         "max" : [ 4.110711, 1 ],
         "min" : [ 0.01822191, 0 ],
         "name" : "accessor_uv0_Wire_4391385a-cf83-4396-9e33-31e4e4930b27_0_9",
         "type" : "VEC2"
      },
      {
         "bufferView" : 2,
         "byteOffset" : 15336288,
         "componentType" : 5126,
         "count" : 196,
         "max" : [ 0.007042537, 0.003128175, 0.007323676 ],
         "min" : [ -0.007042537, -0.003128175, -0.007323676 ],
         "name" : "accessor_uv1_DoubleTaperedMarker_0d3889f3-3ede-470c-8af4-de4813306126_0_0",
         "type" : "VEC3"
      }
   ],
   "asset" : {
      "copyright" : "Unknown.",
      "generator" : "Tilt Brush 15.2.4484bbdd5",
      "version" : "2.0"
   },
   "bufferViews" : [
      {
         "buffer" : 0,
         "byteLength" : 5680992,
         "byteOffset" : 0,
         "name" : "ushortBufferView",
         "target" : 34963
      },
      {
         "buffer" : 0,
         "byteLength" : 5112096,
         "byteOffset" : 5680992,
         "byteStride" : 8,
         "name" : "vec2BufferView",
         "target" : 34962
      },
      {
         "buffer" : 0,
         "byteLength" : 15566544,
         "byteOffset" : 10793088,
         "byteStride" : 12,
         "name" : "vec3BufferView",
         "target" : 34962
      },
      {
         "buffer" : 0,
         "byteLength" : 20600320,
         "byteOffset" : 26359632,
         "byteStride" : 16,
         "name" : "vec4BufferView",
         "target" : 34962
      }
   ],
   "buffers" : [
      {
         "byteLength" : 46959952,
         "name" : "sketch",
         "uri" : "sketch.bin"
      }
   ],
   "cameras" : [
      {
         "perspective" : {
            "yfov" : 0,
            "znear" : 0.1
         },
         "type" : "perspective"
      }
   ],
   "extensions" : {
      "GOOGLE_tilt_brush_techniques" : {
         "programs" : [
            {
               "attributes" : [
                  "a_position",
                  "a_normal",
                  "a_color",
                  "a_tangent",
                  "a_texcoord0",
                  "a_texcoord1"
               ],
               "fragmentShader" : 0,
               "name" : "program_0d3889f3-3ede-470c-8af4-de4813306126",
               "vertexShader" : 7
            },
            {
               "attributes" : [ "a_position", "a_normal", "a_color" ],
               "fragmentShader" : 1,
               "name" : "program_0e87b49c-6546-3a34-3a44-8a556d7d6c3e",
               "vertexShader" : 8
            },
            {
               "attributes" : [ "a_position", "a_normal", "a_color" ],
               "fragmentShader" : 2,
               "name" : "program_3d813d82-5839-4450-8ddc-8e889ecd96c7",
               "vertexShader" : 9
            },
            {
               "attributes" : [ "a_position", "a_normal", "a_color", "a_tangent", "a_texcoord0" ],
               "fragmentShader" : 3,
               "name" : "program_429ed64a-4e97-4466-84d3-145a861ef684",
               "vertexShader" : 10
            },
            {
               "attributes" : [ "a_position", "a_normal", "a_color", "a_tangent", "a_texcoord0" ],
               "fragmentShader" : 4,
               "name" : "program_4391385a-cf83-4396-9e33-31e4e4930b27",
               "vertexShader" : 11
            },
            {
               "attributes" : [ "a_position", "a_normal", "a_color", "a_tangent", "a_texcoord0" ],
               "fragmentShader" : 5,
               "name" : "program_accb32f5-4509-454f-93f8-1df3fd31df1b",
               "vertexShader" : 12
            },
            {
               "attributes" : [ "a_position", "a_normal", "a_color", "a_tangent", "a_texcoord0" ],
               "fragmentShader" : 6,
               "name" : "program_d90c6ad8-af0f-4b54-b422-e0f92abe1b3c",
               "vertexShader" : 13
            }
         ],
         "shaders" : [
            {
               "name" : "fragment_0d3889f3-3ede-470c-8af4-de4813306126",
               "type" : 35632,
               "uri" : "https://www.tiltbrush.com/shaders/brushes/DoubleTaperedMarker-0d3889f3-3ede-470c-8af4-de4813306126/DoubleTaperedMarker-0d3889f3-3ede-470c-8af4-de4813306126-v10.0-fragment.glsl"
            },
            {
               "name" : "fragment_0e87b49c-6546-3a34-3a44-8a556d7d6c3e",
               "type" : 35632,
               "uri" : "https://www.tiltbrush.com/shaders/brushes/BlocksBasic-0e87b49c-6546-3a34-3a44-8a556d7d6c3e/BlocksBasic-0e87b49c-6546-3a34-3a44-8a556d7d6c3e-v10.0-fragment.glsl"
            },
            {
               "name" : "fragment_3d813d82-5839-4450-8ddc-8e889ecd96c7",
               "type" : 35632,
               "uri" : "https://www.tiltbrush.com/shaders/brushes/BlocksGlass-3d813d82-5839-4450-8ddc-8e889ecd96c7/BlocksGlass-3d813d82-5839-4450-8ddc-8e889ecd96c7-v10.0-fragment.glsl"
            },
            {
               "name" : "fragment_429ed64a-4e97-4466-84d3-145a861ef684",
               "type" : 35632,
               "uri" : "https://www.tiltbrush.com/shaders/brushes/Marker-429ed64a-4e97-4466-84d3-145a861ef684/Marker-429ed64a-4e97-4466-84d3-145a861ef684-v10.0-fragment.glsl"
            },
            {
               "name" : "fragment_4391385a-cf83-4396-9e33-31e4e4930b27",
               "type" : 35632,
               "uri" : "https://www.tiltbrush.com/shaders/brushes/Wire-4391385a-cf83-4396-9e33-31e4e4930b27/Wire-4391385a-cf83-4396-9e33-31e4e4930b27-v10.0-fragment.glsl"
            },
            {
               "name" : "fragment_accb32f5-4509-454f-93f8-1df3fd31df1b",
               "type" : 35632,
               "uri" : "https://www.tiltbrush.com/shaders/brushes/SoftHighlighter-accb32f5-4509-454f-93f8-1df3fd31df1b/SoftHighlighter-accb32f5-4509-454f-93f8-1df3fd31df1b-v10.0-fragment.glsl"
            },
            {
               "name" : "fragment_d90c6ad8-af0f-4b54-b422-e0f92abe1b3c",
               "type" : 35632,
               "uri" : "https://www.tiltbrush.com/shaders/brushes/TaperedMarker-d90c6ad8-af0f-4b54-b422-e0f92abe1b3c/TaperedMarker-d90c6ad8-af0f-4b54-b422-e0f92abe1b3c-v10.0-fragment.glsl"
            },
            {
               "name" : "vertex_0d3889f3-3ede-470c-8af4-de4813306126",
               "type" : 35633,
               "uri" : "https://www.tiltbrush.com/shaders/brushes/DoubleTaperedMarker-0d3889f3-3ede-470c-8af4-de4813306126/DoubleTaperedMarker-0d3889f3-3ede-470c-8af4-de4813306126-v10.0-vertex.glsl"
            },
            {
               "name" : "vertex_0e87b49c-6546-3a34-3a44-8a556d7d6c3e",
               "type" : 35633,
               "uri" : "https://www.tiltbrush.com/shaders/brushes/BlocksBasic-0e87b49c-6546-3a34-3a44-8a556d7d6c3e/BlocksBasic-0e87b49c-6546-3a34-3a44-8a556d7d6c3e-v10.0-vertex.glsl"
            },
            {
               "name" : "vertex_3d813d82-5839-4450-8ddc-8e889ecd96c7",
               "type" : 35633,
               "uri" : "https://www.tiltbrush.com/shaders/brushes/BlocksGlass-3d813d82-5839-4450-8ddc-8e889ecd96c7/BlocksGlass-3d813d82-5839-4450-8ddc-8e889ecd96c7-v10.0-vertex.glsl"
            },
            {
               "name" : "vertex_429ed64a-4e97-4466-84d3-145a861ef684",
               "type" : 35633,
               "uri" : "https://www.tiltbrush.com/shaders/brushes/Marker-429ed64a-4e97-4466-84d3-145a861ef684/Marker-429ed64a-4e97-4466-84d3-145a861ef684-v10.0-vertex.glsl"
            },
            {
               "name" : "vertex_4391385a-cf83-4396-9e33-31e4e4930b27",
               "type" : 35633,
               "uri" : "https://www.tiltbrush.com/shaders/brushes/Wire-4391385a-cf83-4396-9e33-31e4e4930b27/Wire-4391385a-cf83-4396-9e33-31e4e4930b27-v10.0-vertex.glsl"
            },
            {
               "name" : "vertex_accb32f5-4509-454f-93f8-1df3fd31df1b",
               "type" : 35633,
               "uri" : "https://www.tiltbrush.com/shaders/brushes/SoftHighlighter-accb32f5-4509-454f-93f8-1df3fd31df1b/SoftHighlighter-accb32f5-4509-454f-93f8-1df3fd31df1b-v10.0-vertex.glsl"
            },
            {
               "name" : "vertex_d90c6ad8-af0f-4b54-b422-e0f92abe1b3c",
               "type" : 35633,
               "uri" : "https://www.tiltbrush.com/shaders/brushes/TaperedMarker-d90c6ad8-af0f-4b54-b422-e0f92abe1b3c/TaperedMarker-d90c6ad8-af0f-4b54-b422-e0f92abe1b3c-v10.0-vertex.glsl"
            }
         ],
         "techniques" : [
            {
               "attributes" : {
                  "a_color" : "color",
                  "a_normal" : "normal",
                  "a_position" : "position",
                  "a_tangent" : "tangent",
                  "a_texcoord0" : "texcoord0",
                  "a_texcoord1" : "texcoord1"
               },
               "name" : "technique_0d3889f3-3ede-470c-8af4-de4813306126",
               "parameters" : {
                  "SceneLight_0_color" : {
                     "node" : 8,
                     "type" : 35666
                  },
                  "SceneLight_0_matrix" : {
                     "node" : 8,
                     "semantic" : "MODELVIEW",
                     "type" : 35676
                  },
                  "SceneLight_1_color" : {
                     "node" : 9,
                     "type" : 35666
                  },
                  "SceneLight_1_matrix" : {
                     "node" : 9,
                     "semantic" : "MODELVIEW",
                     "type" : 35676
                  },
                  "ambient_light_color" : {
                     "type" : 35666
                  },
                  "color" : {
                     "semantic" : "COLOR",
                     "type" : 35666
                  },
                  "modelViewMatrix" : {
                     "semantic" : "MODELVIEW",
                     "type" : 35676
                  },
                  "normal" : {
                     "semantic" : "NORMAL",
                     "type" : 35665
                  },
                  "normalMatrix" : {
                     "semantic" : "MODELVIEWINVERSETRANSPOSE",
                     "type" : 35675
                  },
                  "position" : {
                     "semantic" : "POSITION",
                     "type" : 35665
                  },
                  "projectionMatrix" : {
                     "semantic" : "PROJECTION",
                     "type" : 35676
                  },
                  "tangent" : {
                     "semantic" : "TANGENT",
                     "type" : 35666
                  },
                  "texcoord0" : {
                     "semantic" : "TEXCOORD_0",
                     "type" : 35664
                  },
                  "texcoord1" : {
                     "semantic" : "TEXCOORD_1",
                     "type" : 35665
                  }
               },
               "program" : 0,
               "states" : {
                  "enable" : [ 2929 ],
                  "functions" : {
                     "depthMask" : [ true ]
                  }
               },
               "uniforms" : {
                  "u_SceneLight_0_color" : "SceneLight_0_color",
                  "u_SceneLight_0_matrix" : "SceneLight_0_matrix",
                  "u_SceneLight_1_color" : "SceneLight_1_color",
                  "u_SceneLight_1_matrix" : "SceneLight_1_matrix",
                  "u_ambient_light_color" : "ambient_light_color",
                  "u_modelViewMatrix" : "modelViewMatrix",
                  "u_normalMatrix" : "normalMatrix",
                  "u_projectionMatrix" : "projectionMatrix"
               }
            },
            {
               "attributes" : {
                  "a_color" : "color",
                  "a_normal" : "normal",
                  "a_position" : "position"
               },
               "name" : "technique_0e87b49c-6546-3a34-3a44-8a556d7d6c3e",
               "parameters" : {
                  "Color" : {
                     "type" : 35666
                  },
                  "SceneLight_0_color" : {
                     "node" : 8,
                     "type" : 35666
                  },
                  "SceneLight_0_matrix" : {
                     "node" : 8,
                     "semantic" : "MODELVIEW",
                     "type" : 35676
                  },
                  "SceneLight_1_color" : {
                     "node" : 9,
                     "type" : 35666
                  },
                  "SceneLight_1_matrix" : {
                     "node" : 9,
                     "semantic" : "MODELVIEW",
                     "type" : 35676
                  },
                  "Shininess" : {
                     "type" : 5126
                  },
                  "SpecColor" : {
                     "type" : 35666
                  },
                  "ambient_light_color" : {
                     "type" : 35666
                  },
                  "color" : {
                     "semantic" : "COLOR",
                     "type" : 35666
                  },
                  "modelViewMatrix" : {
                     "semantic" : "MODELVIEW",
                     "type" : 35676
                  },
                  "normal" : {
                     "semantic" : "NORMAL",
                     "type" : 35665
                  },
                  "normalMatrix" : {
                     "semantic" : "MODELVIEWINVERSETRANSPOSE",
                     "type" : 35675
                  },
                  "position" : {
                     "semantic" : "POSITION",
                     "type" : 35665
                  },
                  "projectionMatrix" : {
                     "semantic" : "PROJECTION",
                     "type" : 35676
                  }
               },
               "program" : 1,
               "states" : {
                  "enable" : [ 2929, 2884 ],
                  "functions" : {
                     "depthMask" : [ true ]
                  }
               },
               "uniforms" : {
                  "u_Color" : "Color",
                  "u_SceneLight_0_color" : "SceneLight_0_color",
                  "u_SceneLight_0_matrix" : "SceneLight_0_matrix",
                  "u_SceneLight_1_color" : "SceneLight_1_color",
                  "u_SceneLight_1_matrix" : "SceneLight_1_matrix",
                  "u_Shininess" : "Shininess",
                  "u_SpecColor" : "SpecColor",
                  "u_ambient_light_color" : "ambient_light_color",
                  "u_modelViewMatrix" : "modelViewMatrix",
                  "u_normalMatrix" : "normalMatrix",
                  "u_projectionMatrix" : "projectionMatrix"
               }
            },
            {
               "attributes" : {
                  "a_color" : "color",
                  "a_normal" : "normal",
                  "a_position" : "position"
               },
               "name" : "technique_3d813d82-5839-4450-8ddc-8e889ecd96c7",
               "parameters" : {
                  "Color" : {
                     "type" : 35666
                  },
                  "RimIntensity" : {
                     "type" : 5126
                  },
                  "RimPower" : {
                     "type" : 5126
                  },
                  "SceneLight_0_color" : {
                     "node" : 8,
                     "type" : 35666
                  },
                  "SceneLight_0_matrix" : {
                     "node" : 8,
                     "semantic" : "MODELVIEW",
                     "type" : 35676
                  },
                  "SceneLight_1_color" : {
                     "node" : 9,
                     "type" : 35666
                  },
                  "SceneLight_1_matrix" : {
                     "node" : 9,
                     "semantic" : "MODELVIEW",
                     "type" : 35676
                  },
                  "Shininess" : {
                     "type" : 5126
                  },
                  "ambient_light_color" : {
                     "type" : 35666
                  },
                  "color" : {
                     "semantic" : "COLOR",
                     "type" : 35666
                  },
                  "modelViewMatrix" : {
                     "semantic" : "MODELVIEW",
                     "type" : 35676
                  },
                  "normal" : {
                     "semantic" : "NORMAL",
                     "type" : 35665
                  },
                  "normalMatrix" : {
                     "semantic" : "MODELVIEWINVERSETRANSPOSE",
                     "type" : 35675
                  },
                  "position" : {
                     "semantic" : "POSITION",
                     "type" : 35665
                  },
                  "projectionMatrix" : {
                     "semantic" : "PROJECTION",
                     "type" : 35676
                  }
               },
               "program" : 2,
               "states" : {
                  "enable" : [ 2929, 3042 ],
                  "functions" : {
                     "blendFuncSeparate" : [ 1, 1, 1, 1 ],
                     "depthMask" : [ false ]
                  }
               },
               "uniforms" : {
                  "u_Color" : "Color",
                  "u_RimIntensity" : "RimIntensity",
                  "u_RimPower" : "RimPower",
                  "u_SceneLight_0_color" : "SceneLight_0_color",
                  "u_SceneLight_0_matrix" : "SceneLight_0_matrix",
                  "u_SceneLight_1_color" : "SceneLight_1_color",
                  "u_SceneLight_1_matrix" : "SceneLight_1_matrix",
                  "u_Shininess" : "Shininess",
                  "u_ambient_light_color" : "ambient_light_color",
                  "u_modelViewMatrix" : "modelViewMatrix",
                  "u_normalMatrix" : "normalMatrix",
                  "u_projectionMatrix" : "projectionMatrix"
               }
            },
            {
               "attributes" : {
                  "a_color" : "color",
                  "a_normal" : "normal",
                  "a_position" : "position",
                  "a_tangent" : "tangent",
                  "a_texcoord0" : "texcoord0"
               },
               "name" : "technique_429ed64a-4e97-4466-84d3-145a861ef684",
               "parameters" : {
                  "Cutoff" : {
                     "type" : 5126
                  },
                  "MainTex" : {
                     "type" : 35678
                  },
                  "MainTex_TexelSize" : {
                     "type" : 35666
                  },
                  "SceneLight_0_color" : {
                     "node" : 8,
                     "type" : 35666
                  },
                  "SceneLight_0_matrix" : {
                     "node" : 8,
                     "semantic" : "MODELVIEW",
                     "type" : 35676
                  },
                  "SceneLight_1_color" : {
                     "node" : 9,
                     "type" : 35666
                  },
                  "SceneLight_1_matrix" : {
                     "node" : 9,
                     "semantic" : "MODELVIEW",
                     "type" : 35676
                  },
                  "ambient_light_color" : {
                     "type" : 35666
                  },
                  "color" : {
                     "semantic" : "COLOR",
                     "type" : 35666
                  },
                  "modelViewMatrix" : {
                     "semantic" : "MODELVIEW",
                     "type" : 35676
                  },
                  "normal" : {
                     "semantic" : "NORMAL",
                     "type" : 35665
                  },
                  "normalMatrix" : {
                     "semantic" : "MODELVIEWINVERSETRANSPOSE",
                     "type" : 35675
                  },
                  "position" : {
                     "semantic" : "POSITION",
                     "type" : 35665
                  },
                  "projectionMatrix" : {
                     "semantic" : "PROJECTION",
                     "type" : 35676
                  },
                  "tangent" : {
                     "semantic" : "TANGENT",
                     "type" : 35666
                  },
                  "texcoord0" : {
                     "semantic" : "TEXCOORD_0",
                     "type" : 35664
                  }
               },
               "program" : 3,
               "states" : {
                  "enable" : [ 2929 ],
                  "functions" : {
                     "depthMask" : [ true ]
                  }
               },
               "uniforms" : {
                  "u_Cutoff" : "Cutoff",
                  "u_MainTex" : "MainTex",
                  "u_MainTex_TexelSize" : "MainTex_TexelSize",
                  "u_SceneLight_0_color" : "SceneLight_0_color",
                  "u_SceneLight_0_matrix" : "SceneLight_0_matrix",
                  "u_SceneLight_1_color" : "SceneLight_1_color",
                  "u_SceneLight_1_matrix" : "SceneLight_1_matrix",
                  "u_ambient_light_color" : "ambient_light_color",
                  "u_modelViewMatrix" : "modelViewMatrix",
                  "u_normalMatrix" : "normalMatrix",
                  "u_projectionMatrix" : "projectionMatrix"
               }
            },
            {
               "attributes" : {
                  "a_color" : "color",
                  "a_normal" : "normal",
                  "a_position" : "position",
                  "a_tangent" : "tangent",
                  "a_texcoord0" : "texcoord0"
               },
               "name" : "technique_4391385a-cf83-4396-9e33-31e4e4930b27",
               "parameters" : {
                  "Cutoff" : {
                     "type" : 5126
                  },
                  "SceneLight_0_color" : {
                     "node" : 8,
                     "type" : 35666
                  },
                  "SceneLight_0_matrix" : {
                     "node" : 8,
                     "semantic" : "MODELVIEW",
                     "type" : 35676
                  },
                  "SceneLight_1_color" : {
                     "node" : 9,
                     "type" : 35666
                  },
                  "SceneLight_1_matrix" : {
                     "node" : 9,
                     "semantic" : "MODELVIEW",
                     "type" : 35676
                  },
                  "ambient_light_color" : {
                     "type" : 35666
                  },
                  "color" : {
                     "semantic" : "COLOR",
                     "type" : 35666
                  },
                  "modelViewMatrix" : {
                     "semantic" : "MODELVIEW",
                     "type" : 35676
                  },
                  "normal" : {
                     "semantic" : "NORMAL",
                     "type" : 35665
                  },
                  "normalMatrix" : {
                     "semantic" : "MODELVIEWINVERSETRANSPOSE",
                     "type" : 35675
                  },
                  "position" : {
                     "semantic" : "POSITION",
                     "type" : 35665
                  },
                  "projectionMatrix" : {
                     "semantic" : "PROJECTION",
                     "type" : 35676
                  },
                  "tangent" : {
                     "semantic" : "TANGENT",
                     "type" : 35666
                  },
                  "texcoord0" : {
                     "semantic" : "TEXCOORD_0",
                     "type" : 35664
                  }
               },
               "program" : 4,
               "states" : {
                  "enable" : [ 2929 ],
                  "functions" : {
                     "depthMask" : [ true ]
                  }
               },
               "uniforms" : {
                  "u_Cutoff" : "Cutoff",
                  "u_SceneLight_0_color" : "SceneLight_0_color",
                  "u_SceneLight_0_matrix" : "SceneLight_0_matrix",
                  "u_SceneLight_1_color" : "SceneLight_1_color",
                  "u_SceneLight_1_matrix" : "SceneLight_1_matrix",
                  "u_ambient_light_color" : "ambient_light_color",
                  "u_modelViewMatrix" : "modelViewMatrix",
                  "u_normalMatrix" : "normalMatrix",
                  "u_projectionMatrix" : "projectionMatrix"
               }
            },
            {
               "attributes" : {
                  "a_color" : "color",
                  "a_normal" : "normal",
                  "a_position" : "position",
                  "a_tangent" : "tangent",
                  "a_texcoord0" : "texcoord0"
               },
               "name" : "technique_accb32f5-4509-454f-93f8-1df3fd31df1b",
               "parameters" : {
                  "MainTex" : {
                     "type" : 35678
                  },
                  "MainTex_TexelSize" : {
                     "type" : 35666
                  },
                  "SceneLight_0_color" : {
                     "node" : 8,
                     "type" : 35666
                  },
                  "SceneLight_0_matrix" : {
                     "node" : 8,
                     "semantic" : "MODELVIEW",
                     "type" : 35676
                  },
                  "SceneLight_1_color" : {
                     "node" : 9,
                     "type" : 35666
                  },
                  "SceneLight_1_matrix" : {
                     "node" : 9,
                     "semantic" : "MODELVIEW",
                     "type" : 35676
                  },
                  "ambient_light_color" : {
                     "type" : 35666
                  },
                  "color" : {
                     "semantic" : "COLOR",
                     "type" : 35666
                  },
                  "modelViewMatrix" : {
                     "semantic" : "MODELVIEW",
                     "type" : 35676
                  },
                  "normal" : {
                     "semantic" : "NORMAL",
                     "type" : 35665
                  },
                  "normalMatrix" : {
                     "semantic" : "MODELVIEWINVERSETRANSPOSE",
                     "type" : 35675
                  },
                  "position" : {
                     "semantic" : "POSITION",
                     "type" : 35665
                  },
                  "projectionMatrix" : {
                     "semantic" : "PROJECTION",
                     "type" : 35676
                  },
                  "tangent" : {
                     "semantic" : "TANGENT",
                     "type" : 35666
                  },
                  "texcoord0" : {
                     "semantic" : "TEXCOORD_0",
                     "type" : 35664
                  }
               },
               "program" : 5,
               "states" : {
                  "enable" : [ 2929, 3042 ],
                  "functions" : {
                     "blendFuncSeparate" : [ 1, 1, 1, 1 ],
                     "depthMask" : [ false ]
                  }
               },
               "uniforms" : {
                  "u_MainTex" : "MainTex",
                  "u_MainTex_TexelSize" : "MainTex_TexelSize",
                  "u_SceneLight_0_color" : "SceneLight_0_color",
                  "u_SceneLight_0_matrix" : "SceneLight_0_matrix",
                  "u_SceneLight_1_color" : "SceneLight_1_color",
                  "u_SceneLight_1_matrix" : "SceneLight_1_matrix",
                  "u_ambient_light_color" : "ambient_light_color",
                  "u_modelViewMatrix" : "modelViewMatrix",
                  "u_normalMatrix" : "normalMatrix",
                  "u_projectionMatrix" : "projectionMatrix"
               }
            },
            {
               "attributes" : {
                  "a_color" : "color",
                  "a_normal" : "normal",
                  "a_position" : "position",
                  "a_tangent" : "tangent",
                  "a_texcoord0" : "texcoord0"
               },
               "name" : "technique_d90c6ad8-af0f-4b54-b422-e0f92abe1b3c",
               "parameters" : {
                  "Cutoff" : {
                     "type" : 5126
                  },
                  "MainTex" : {
                     "type" : 35678
                  },
                  "MainTex_TexelSize" : {
                     "type" : 35666
                  },
                  "SceneLight_0_color" : {
                     "node" : 8,
                     "type" : 35666
                  },
                  "SceneLight_0_matrix" : {
                     "node" : 8,
                     "semantic" : "MODELVIEW",
                     "type" : 35676
                  },
                  "SceneLight_1_color" : {
                     "node" : 9,
                     "type" : 35666
                  },
                  "SceneLight_1_matrix" : {
                     "node" : 9,
                     "semantic" : "MODELVIEW",
                     "type" : 35676
                  },
                  "ambient_light_color" : {
                     "type" : 35666
                  },
                  "color" : {
                     "semantic" : "COLOR",
                     "type" : 35666
                  },
                  "modelViewMatrix" : {
                     "semantic" : "MODELVIEW",
                     "type" : 35676
                  },
                  "normal" : {
                     "semantic" : "NORMAL",
                     "type" : 35665
                  },
                  "normalMatrix" : {
                     "semantic" : "MODELVIEWINVERSETRANSPOSE",
                     "type" : 35675
                  },
                  "position" : {
                     "semantic" : "POSITION",
                     "type" : 35665
                  },
                  "projectionMatrix" : {
                     "semantic" : "PROJECTION",
                     "type" : 35676
                  },
                  "tangent" : {
                     "semantic" : "TANGENT",
                     "type" : 35666
                  },
                  "texcoord0" : {
                     "semantic" : "TEXCOORD_0",
                     "type" : 35664
                  }
               },
               "program" : 6,
               "states" : {
                  "enable" : [ 2929 ],
                  "functions" : {
                     "depthMask" : [ true ]
                  }
               },
               "uniforms" : {
                  "u_Cutoff" : "Cutoff",
                  "u_MainTex" : "MainTex",
                  "u_MainTex_TexelSize" : "MainTex_TexelSize",
                  "u_SceneLight_0_color" : "SceneLight_0_color",
                  "u_SceneLight_0_matrix" : "SceneLight_0_matrix",
                  "u_SceneLight_1_color" : "SceneLight_1_color",
                  "u_SceneLight_1_matrix" : "SceneLight_1_matrix",
                  "u_ambient_light_color" : "ambient_light_color",
                  "u_modelViewMatrix" : "modelViewMatrix",
                  "u_normalMatrix" : "normalMatrix",
                  "u_projectionMatrix" : "projectionMatrix"
               }
            }
         ]
      }
   },
   "extensionsUsed" : [
      "GOOGLE_backgrounds",
      "GOOGLE_camera_settings",
      "GOOGLE_real_world_transform",
      "GOOGLE_scene_rotation"
   ],
   "images" : [
      {
         "name" : "image_429ed64a-4e97-4466-84d3-145a861ef684_MainTex",
         "uri" : "https://www.tiltbrush.com/shaders/brushes/Marker-429ed64a-4e97-4466-84d3-145a861ef684/Marker-429ed64a-4e97-4466-84d3-145a861ef684-v10.0-MainTex.png"
      },
      {
         "name" : "image_accb32f5-4509-454f-93f8-1df3fd31df1b_MainTex",
         "uri" : "https://www.tiltbrush.com/shaders/brushes/SoftHighlighter-accb32f5-4509-454f-93f8-1df3fd31df1b/SoftHighlighter-accb32f5-4509-454f-93f8-1df3fd31df1b-v10.0-MainTex.png"
      },
      {
         "name" : "image_d90c6ad8-af0f-4b54-b422-e0f92abe1b3c_MainTex",
         "uri" : "https://www.tiltbrush.com/shaders/brushes/TaperedMarker-d90c6ad8-af0f-4b54-b422-e0f92abe1b3c/TaperedMarker-d90c6ad8-af0f-4b54-b422-e0f92abe1b3c-v10.0-MainTex.png"
      }
   ],
   "materials" : [
      {
         "extensions" : {
            "GOOGLE_tilt_brush_techniques" : {
               "technique" : 0,
               "values" : {
                  "SceneLight_0_color" : [ 0.7780392, 0.8156863, 0.9913726, 1 ],
                  "SceneLight_1_color" : [ 0.4282353, 0.4211765, 0.3458824, 1 ],
                  "ambient_light_color" : [ 0.3921569, 0.3921569, 0.3921569, 1 ]
               }
            }
         },
         "name" : "material_0d3889f3-3ede-470c-8af4-de4813306126"
      },
      {
         "extensions" : {
            "GOOGLE_tilt_brush_techniques" : {
               "technique" : 1,
               "values" : {
                  "Color" : [ 1, 1, 1, 1 ],
                  "SceneLight_0_color" : [ 0.7780392, 0.8156863, 0.9913726, 1 ],
                  "SceneLight_1_color" : [ 0.4282353, 0.4211765, 0.3458824, 1 ],
                  "Shininess" : 0.2,
                  "SpecColor" : [ 0.1960784, 0.1960784, 0.1960784, 1 ],
                  "ambient_light_color" : [ 0.3921569, 0.3921569, 0.3921569, 1 ]
               }
            }
         },
         "name" : "material_0e87b49c-6546-3a34-3a44-8a556d7d6c3e"
      },
      {
         "extensions" : {
            "GOOGLE_tilt_brush_techniques" : {
               "technique" : 2,
               "values" : {
                  "Color" : [ 1, 1, 1, 1 ],
                  "RimIntensity" : 0.7,
                  "RimPower" : 4,
                  "SceneLight_0_color" : [ 0.7780392, 0.8156863, 0.9913726, 1 ],
                  "SceneLight_1_color" : [ 0.4282353, 0.4211765, 0.3458824, 1 ],
                  "Shininess" : 0.8,
                  "ambient_light_color" : [ 0.3921569, 0.3921569, 0.3921569, 1 ]
               }
            }
         },
         "name" : "material_3d813d82-5839-4450-8ddc-8e889ecd96c7"
      },
      {
         "extensions" : {
            "GOOGLE_tilt_brush_techniques" : {
               "technique" : 3,
               "values" : {
                  "Cutoff" : 0.067,
                  "MainTex" : 0,
                  "MainTex_TexelSize" : [ 0.015625, 0.00390625, 64, 256 ],
                  "SceneLight_0_color" : [ 0.7780392, 0.8156863, 0.9913726, 1 ],
                  "SceneLight_1_color" : [ 0.4282353, 0.4211765, 0.3458824, 1 ],
                  "ambient_light_color" : [ 0.3921569, 0.3921569, 0.3921569, 1 ]
               }
            }
         },
         "name" : "material_429ed64a-4e97-4466-84d3-145a861ef684"
      },
      {
         "extensions" : {
            "GOOGLE_tilt_brush_techniques" : {
               "technique" : 4,
               "values" : {
                  "Cutoff" : 0.067,
                  "SceneLight_0_color" : [ 0.7780392, 0.8156863, 0.9913726, 1 ],
                  "SceneLight_1_color" : [ 0.4282353, 0.4211765, 0.3458824, 1 ],
                  "ambient_light_color" : [ 0.3921569, 0.3921569, 0.3921569, 1 ]
               }
            }
         },
         "name" : "material_4391385a-cf83-4396-9e33-31e4e4930b27"
      },
      {
         "extensions" : {
            "GOOGLE_tilt_brush_techniques" : {
               "technique" : 5,
               "values" : {
                  "MainTex" : 1,
                  "MainTex_TexelSize" : [ 0.001953125, 0.00390625, 512, 256 ],
                  "SceneLight_0_color" : [ 0.7780392, 0.8156863, 0.9913726, 1 ],
                  "SceneLight_1_color" : [ 0.4282353, 0.4211765, 0.3458824, 1 ],
                  "ambient_light_color" : [ 0.3921569, 0.3921569, 0.3921569, 1 ]
               }
            }
         },
         "name" : "material_accb32f5-4509-454f-93f8-1df3fd31df1b"
      },
      {
         "extensions" : {
            "GOOGLE_tilt_brush_techniques" : {
               "technique" : 6,
               "values" : {
                  "Cutoff" : 0.067,
                  "MainTex" : 2,
                  "MainTex_TexelSize" : [ 0.001953125, 0.00390625, 512, 256 ],
                  "SceneLight_0_color" : [ 0.7780392, 0.8156863, 0.9913726, 1 ],
                  "SceneLight_1_color" : [ 0.4282353, 0.4211765, 0.3458824, 1 ],
                  "ambient_light_color" : [ 0.3921569, 0.3921569, 0.3921569, 1 ]
               }
            }
         },
         "name" : "material_d90c6ad8-af0f-4b54-b422-e0f92abe1b3c"
      }
   ],
   "meshes" : [
      {
         "name" : "mesh_0fKNrdZF8yD_0_0_-1360060",
         "primitives" : [
            {
               "attributes" : {
                  "COLOR_0" : 0,
                  "NORMAL" : 32,
                  "POSITION" : 48
               },
               "indices" : 16,
               "material" : 2,
               "mode" : 4
            }
         ]
      },
      {
         "name" : "mesh_0fKNrdZF8yD_1_0_-1360068",
         "primitives" : [
            {
               "attributes" : {
                  "COLOR_0" : 1,
                  "NORMAL" : 33,
                  "POSITION" : 49
               },
               "indices" : 17,
               "material" : 1,
               "mode" : 4
            }
         ]
      },
      {
         "name" : "mesh_DoubleTaperedMarker_0d3889f3-3ede-470c-8af4-de4813306126_0_0",
         "primitives" : [
            {
               "attributes" : {
                  "COLOR_0" : 2,
                  "NORMAL" : 34,
                  "POSITION" : 50,
                  "TANGENT" : 64,
                  "TEXCOORD_0" : 78,
                  "TEXCOORD_1" : 92
               },
               "indices" : 18,
               "material" : 0,
               "mode" : 4
            }
         ]
      },
      {
         "name" : "mesh_Marker_429ed64a-4e97-4466-84d3-145a861ef684_0_0",
         "primitives" : [
            {
               "attributes" : {
                  "COLOR_0" : 3,
                  "NORMAL" : 35,
                  "POSITION" : 51,
                  "TANGENT" : 65,
                  "TEXCOORD_0" : 79
               },
               "indices" : 19,
               "material" : 3,
               "mode" : 4
            }
         ]
      },
      {
         "name" : "mesh_SoftHighlighter_accb32f5-4509-454f-93f8-1df3fd31df1b_0_0",
         "primitives" : [
            {
               "attributes" : {
                  "COLOR_0" : 4,
                  "NORMAL" : 36,
                  "POSITION" : 52,
                  "TANGENT" : 66,
                  "TEXCOORD_0" : 80
               },
               "indices" : 20,
               "material" : 5,
               "mode" : 4
            }
         ]
      },
      {
         "name" : "mesh_TaperedMarker_d90c6ad8-af0f-4b54-b422-e0f92abe1b3c_0_0",
         "primitives" : [
            {
               "attributes" : {
                  "COLOR_0" : 5,
                  "NORMAL" : 37,
                  "POSITION" : 53,
                  "TANGENT" : 67,
                  "TEXCOORD_0" : 81
               },
               "indices" : 21,
               "material" : 6,
               "mode" : 4
            }
         ]
      },
      {
         "name" : "mesh_Wire_4391385a-cf83-4396-9e33-31e4e4930b27_0_0",
         "primitives" : [
            {
               "attributes" : {
                  "COLOR_0" : 6,
                  "NORMAL" : 38,
                  "POSITION" : 54,
                  "TANGENT" : 68,
                  "TEXCOORD_0" : 82
               },
               "indices" : 22,
               "material" : 4,
               "mode" : 4
            }
         ]
      },
      {
         "name" : "mesh_Wire_4391385a-cf83-4396-9e33-31e4e4930b27_0_1",
         "primitives" : [
            {
               "attributes" : {
                  "COLOR_0" : 7,
                  "NORMAL" : 39,
                  "POSITION" : 55,
                  "TANGENT" : 69,
                  "TEXCOORD_0" : 83
               },
               "indices" : 23,
               "material" : 4,
               "mode" : 4
            }
         ]
      },
      {
         "name" : "mesh_Wire_4391385a-cf83-4396-9e33-31e4e4930b27_0_2",
         "primitives" : [
            {
               "attributes" : {
                  "COLOR_0" : 8,
                  "NORMAL" : 40,
                  "POSITION" : 56,
                  "TANGENT" : 70,
                  "TEXCOORD_0" : 84
               },
               "indices" : 24,
               "material" : 4,
               "mode" : 4
            }
         ]
      },
      {
         "name" : "mesh_Wire_4391385a-cf83-4396-9e33-31e4e4930b27_0_3",
         "primitives" : [
            {
               "attributes" : {
                  "COLOR_0" : 9,
                  "NORMAL" : 41,
                  "POSITION" : 57,
                  "TANGENT" : 71,
                  "TEXCOORD_0" : 85
               },
               "indices" : 25,
               "material" : 4,
               "mode" : 4
            }
         ]
      },
      {
         "name" : "mesh_Wire_4391385a-cf83-4396-9e33-31e4e4930b27_0_4",
         "primitives" : [
            {
               "attributes" : {
                  "COLOR_0" : 10,
                  "NORMAL" : 42,
                  "POSITION" : 58,
                  "TANGENT" : 72,
                  "TEXCOORD_0" : 86
               },
               "indices" : 26,
               "material" : 4,
               "mode" : 4
            }
         ]
      },
      {
         "name" : "mesh_Wire_4391385a-cf83-4396-9e33-31e4e4930b27_0_5",
         "primitives" : [
            {
               "attributes" : {
                  "COLOR_0" : 11,
                  "NORMAL" : 43,
                  "POSITION" : 59,
                  "TANGENT" : 73,
                  "TEXCOORD_0" : 87
               },
               "indices" : 27,
               "material" : 4,
               "mode" : 4
            }
         ]
      },
      {
         "name" : "mesh_Wire_4391385a-cf83-4396-9e33-31e4e4930b27_0_6",
         "primitives" : [
            {
               "attributes" : {
                  "COLOR_0" : 12,
                  "NORMAL" : 44,
                  "POSITION" : 60,
                  "TANGENT" : 74,
                  "TEXCOORD_0" : 88
               },
               "indices" : 28,
               "material" : 4,
               "mode" : 4
            }
         ]
      },
      {
         "name" : "mesh_Wire_4391385a-cf83-4396-9e33-31e4e4930b27_0_7",
         "primitives" : [
            {
               "attributes" : {
                  "COLOR_0" : 13,
                  "NORMAL" : 45,
                  "POSITION" : 61,
                  "TANGENT" : 75,
                  "TEXCOORD_0" : 89
               },
               "indices" : 29,
               "material" : 4,
               "mode" : 4
            }
         ]
      },
      {
         "name" : "mesh_Wire_4391385a-cf83-4396-9e33-31e4e4930b27_0_8",
         "primitives" : [
            {
               "attributes" : {
                  "COLOR_0" : 14,
                  "NORMAL" : 46,
                  "POSITION" : 62,
                  "TANGENT" : 76,
                  "TEXCOORD_0" : 90
               },
               "indices" : 30,
               "material" : 4,
               "mode" : 4
            }
         ]
      },
      {
         "name" : "mesh_Wire_4391385a-cf83-4396-9e33-31e4e4930b27_0_9",
         "primitives" : [
            {
               "attributes" : {
                  "COLOR_0" : 15,
                  "NORMAL" : 47,
                  "POSITION" : 63,
                  "TANGENT" : 77,
                  "TEXCOORD_0" : 91
               },
               "indices" : 31,
               "material" : 4,
               "mode" : 4
            }
         ]
      }
   ],
   "nodes" : [
      {
         "children" : [ 1 ],
         "matrix" : [
            -0.0425517,
            -0.02477979,
            -0.02824191,
            0,
            -0.006703455,
            0.04699164,
            -0.03113102,
            0,
            0.036969,
            -0.02000097,
            -0.03815161,
            0,
            -0.2488986,
            0.9714963,
            0.1411571,
            1
         ],
         "name" : "node_0fKNrdZF8yD_0_0_-1360060"
      },
      {
         "mesh" : 0,
         "name" : "node_0fKNrdZF8yD_0_0_-1360060_mesh_0fKNrdZF8yD_0_0_-1360060"
      },
      {
         "children" : [ 3 ],
         "matrix" : [
            -0.0425517,
            -0.02477979,
            -0.02824191,
            0,
            -0.006703455,
            0.04699164,
            -0.03113102,
            0,
            0.036969,
            -0.02000097,
            -0.03815161,
            0,
            -0.2488986,
            0.9714963,
            0.1411571,
            1
         ],
         "name" : "node_0fKNrdZF8yD_1_0_-1360068"
      },
      {
         "mesh" : 1,
         "name" : "node_0fKNrdZF8yD_1_0_-1360068_mesh_0fKNrdZF8yD_1_0_-1360068"
      },
      {
         "children" : [ 5 ],
         "matrix" : [ 1, 0, 0, 0, 0, 1, 0, 0, 0, 0, 1, 0, 0, 0, 0, 1 ],
         "name" : "node_DoubleTaperedMarker_0d3889f3-3ede-470c-8af4-de4813306126_0_0"
      },
      {
         "mesh" : 2,
         "name" : "node_DoubleTaperedMarker_0d3889f3-3ede-470c-8af4-de4813306126_0_0_mesh_DoubleTaperedMarker_0d3889f3-3ede-470c-8af4-de4813306126_0_0"
      },
      {
         "children" : [ 7 ],
         "matrix" : [ 1, 0, 0, 0, 0, 1, 0, 0, 0, 0, 1, 0, 0, 0, 0, 1 ],
         "name" : "node_Marker_429ed64a-4e97-4466-84d3-145a861ef684_0_0"
      },
      {
         "mesh" : 3,
         "name" : "node_Marker_429ed64a-4e97-4466-84d3-145a861ef684_0_0_mesh_Marker_429ed64a-4e97-4466-84d3-145a861ef684_0_0"
      },
      {
         "matrix" : [
            0.898794,
            0.2191856,
            -0.3796406,
            0,
            -0.4383712,
            0.449397,
            -0.7783785,
            0,
            -1.490116e-08,
            0.8660253999999999,
            0.4999999,
            0,
            1.101922,
            0.07805583000000001,
            0.166504,
            1
         ],
         "name" : "node_SceneLight_0_-914"
      },
      {
         "matrix" : [
            0.7660444,
            -0.4924039,
            -0.4131759,
            0,
            -0.6427876,
            -0.5868242,
            -0.4924039,
            0,
            8.940697e-08,
            0.6427876,
            -0.7660446,
            0,
            1.036221,
            0.02792521,
            0.1626372,
            1
         ],
         "name" : "node_SceneLight_1_-920"
      },
      {
         "children" : [ 11 ],
         "matrix" : [ 1, 0, 0, 0, 0, 1, 0, 0, 0, 0, 1, 0, 0, 0, 0, 1 ],
         "name" : "node_SoftHighlighter_accb32f5-4509-454f-93f8-1df3fd31df1b_0_0"
      },
      {
         "mesh" : 4,
         "name" : "node_SoftHighlighter_accb32f5-4509-454f-93f8-1df3fd31df1b_0_0_mesh_SoftHighlighter_accb32f5-4509-454f-93f8-1df3fd31df1b_0_0"
      },
      {
         "children" : [ 13 ],
         "matrix" : [ 1, 0, 0, 0, 0, 1, 0, 0, 0, 0, 1, 0, 0, 0, 0, 1 ],
         "name" : "node_TaperedMarker_d90c6ad8-af0f-4b54-b422-e0f92abe1b3c_0_0"
      },
      {
         "mesh" : 5,
         "name" : "node_TaperedMarker_d90c6ad8-af0f-4b54-b422-e0f92abe1b3c_0_0_mesh_TaperedMarker_d90c6ad8-af0f-4b54-b422-e0f92abe1b3c_0_0"
      },
      {
         "children" : [ 15 ],
         "matrix" : [ 1, 0, 0, 0, 0, 1, 0, 0, 0, 0, 1, 0, 0, 0, 0, 1 ],
         "name" : "node_Wire_4391385a-cf83-4396-9e33-31e4e4930b27_0_0"
      },
      {
         "mesh" : 6,
         "name" : "node_Wire_4391385a-cf83-4396-9e33-31e4e4930b27_0_0_mesh_Wire_4391385a-cf83-4396-9e33-31e4e4930b27_0_0"
      },
      {
         "children" : [ 17 ],
         "matrix" : [ 1, 0, 0, 0, 0, 1, 0, 0, 0, 0, 1, 0, 0, 0, 0, 1 ],
         "name" : "node_Wire_4391385a-cf83-4396-9e33-31e4e4930b27_0_1"
      },
      {
         "mesh" : 7,
         "name" : "node_Wire_4391385a-cf83-4396-9e33-31e4e4930b27_0_1_mesh_Wire_4391385a-cf83-4396-9e33-31e4e4930b27_0_1"
      },
      {
         "children" : [ 19 ],
         "matrix" : [ 1, 0, 0, 0, 0, 1, 0, 0, 0, 0, 1, 0, 0, 0, 0, 1 ],
         "name" : "node_Wire_4391385a-cf83-4396-9e33-31e4e4930b27_0_2"
      },
      {
         "mesh" : 8,
         "name" : "node_Wire_4391385a-cf83-4396-9e33-31e4e4930b27_0_2_mesh_Wire_4391385a-cf83-4396-9e33-31e4e4930b27_0_2"
      },
      {
         "children" : [ 21 ],
         "matrix" : [ 1, 0, 0, 0, 0, 1, 0, 0, 0, 0, 1, 0, 0, 0, 0, 1 ],
         "name" : "node_Wire_4391385a-cf83-4396-9e33-31e4e4930b27_0_3"
      },
      {
         "mesh" : 9,
         "name" : "node_Wire_4391385a-cf83-4396-9e33-31e4e4930b27_0_3_mesh_Wire_4391385a-cf83-4396-9e33-31e4e4930b27_0_3"
      },
      {
         "children" : [ 23 ],
         "matrix" : [ 1, 0, 0, 0, 0, 1, 0, 0, 0, 0, 1, 0, 0, 0, 0, 1 ],
         "name" : "node_Wire_4391385a-cf83-4396-9e33-31e4e4930b27_0_4"
      },
      {
         "mesh" : 10,
         "name" : "node_Wire_4391385a-cf83-4396-9e33-31e4e4930b27_0_4_mesh_Wire_4391385a-cf83-4396-9e33-31e4e4930b27_0_4"
      },
      {
         "children" : [ 25 ],
         "matrix" : [ 1, 0, 0, 0, 0, 1, 0, 0, 0, 0, 1, 0, 0, 0, 0, 1 ],
         "name" : "node_Wire_4391385a-cf83-4396-9e33-31e4e4930b27_0_5"
      },
      {
         "mesh" : 11,
         "name" : "node_Wire_4391385a-cf83-4396-9e33-31e4e4930b27_0_5_mesh_Wire_4391385a-cf83-4396-9e33-31e4e4930b27_0_5"
      },
      {
         "children" : [ 27 ],
         "matrix" : [ 1, 0, 0, 0, 0, 1, 0, 0, 0, 0, 1, 0, 0, 0, 0, 1 ],
         "name" : "node_Wire_4391385a-cf83-4396-9e33-31e4e4930b27_0_6"
      },
      {
         "mesh" : 12,
         "name" : "node_Wire_4391385a-cf83-4396-9e33-31e4e4930b27_0_6_mesh_Wire_4391385a-cf83-4396-9e33-31e4e4930b27_0_6"
      },
      {
         "children" : [ 29 ],
         "matrix" : [ 1, 0, 0, 0, 0, 1, 0, 0, 0, 0, 1, 0, 0, 0, 0, 1 ],
         "name" : "node_Wire_4391385a-cf83-4396-9e33-31e4e4930b27_0_7"
      },
      {
         "mesh" : 13,
         "name" : "node_Wire_4391385a-cf83-4396-9e33-31e4e4930b27_0_7_mesh_Wire_4391385a-cf83-4396-9e33-31e4e4930b27_0_7"
      },
      {
         "children" : [ 31 ],
         "matrix" : [ 1, 0, 0, 0, 0, 1, 0, 0, 0, 0, 1, 0, 0, 0, 0, 1 ],
         "name" : "node_Wire_4391385a-cf83-4396-9e33-31e4e4930b27_0_8"
      },
      {
         "mesh" : 14,
         "name" : "node_Wire_4391385a-cf83-4396-9e33-31e4e4930b27_0_8_mesh_Wire_4391385a-cf83-4396-9e33-31e4e4930b27_0_8"
      },
      {
         "children" : [ 33 ],
         "matrix" : [ 1, 0, 0, 0, 0, 1, 0, 0, 0, 0, 1, 0, 0, 0, 0, 1 ],
         "name" : "node_Wire_4391385a-cf83-4396-9e33-31e4e4930b27_0_9"
      },
      {
         "mesh" : 15,
         "name" : "node_Wire_4391385a-cf83-4396-9e33-31e4e4930b27_0_9_mesh_Wire_4391385a-cf83-4396-9e33-31e4e4930b27_0_9"
      },
      {
         "camera" : 0,
         "rotation" : [
            -0.02214729874120383,
            0.1957448774593883,
            0.00442191293953091,
            0.9803947606922592
         ],
         "translation" : [ -0.4812441115455015, 1.419517589631983, 2.222382446280458 ]
      }
   ],
   "samplers" : [
      {
         "magFilter" : 9729,
         "minFilter" : 9987,
         "name" : "sampler_LINEAR_LINEAR_REPEAT",
         "wrapS" : 10497,
         "wrapT" : 10497
      }
   ],
   "scene" : 0,
   "scenes" : [
      {
         "extensions" : {
            "GOOGLE_backgrounds" : {
               "color" : [ 0, 0, 0 ]
            },
            "GOOGLE_real_world_transform" : {
               "scaling_factor" : 1
            },
            "GOOGLE_scene_rotation" : {
               "rotation" : [ 0, 0, 0, 1 ]
            }
         },
         "extras" : {
            "GOOGLE_camera_index" : {
               "cameraIndex" : 0,
               "nodeIndex" : 18
            },
            "TB_Environment" : "Standard",
            "TB_EnvironmentGuid" : "ab080599-e465-4a6d-8587-43bf495af68b",
            "TB_FogColor" : "0.1647059, 0.1647059, 0.2078431",
            "TB_FogDensity" : "0",
            "TB_SkyColorA" : "0.654902, 0.7176471, 0.7411765",
            "TB_SkyColorB" : "0.5333334, 0.7333333, 0.8392157",
            "TB_SkyColorHorizon" : "0.654902, 0.7176471, 0.7411765",
            "TB_SkyColorZenith" : "0.5333334, 0.7333333, 0.8392157",
            "TB_SkyGradientDirection" : "-0.2571805, 0.9620981, -0.09069432"
         },
         "name" : "defaultScene",
         "nodes" : [ 14, 8, 9, 16, 18, 20, 22, 24, 26, 28, 30, 32, 6, 12, 10, 4, 0, 2, 34 ]
      }
   ],
   "textures" : [
      {
         "name" : "texture_429ed64a-4e97-4466-84d3-145a861ef684_MainTex",
         "sampler" : 0,
         "source" : 0
      },
      {
         "name" : "texture_accb32f5-4509-454f-93f8-1df3fd31df1b_MainTex",
         "sampler" : 0,
         "source" : 1
      },
      {
         "name" : "texture_d90c6ad8-af0f-4b54-b422-e0f92abe1b3c_MainTex",
         "sampler" : 0,
         "source" : 2
      }
   ]
}
